<?xml version="1.0" encoding="UTF-8"?>
<svg width="303px" height="55px" viewBox="0 0 303 55" version="1.1" xmlns="http://www.w3.org/2000/svg" xmlns:xlink="http://www.w3.org/1999/xlink">
    <!-- Generator: Sketch 53 (72520) - https://sketchapp.com -->
    <title>logo</title>
    <desc>Created with Sketch.</desc>
    <g id="Page-1" stroke="none" stroke-width="1" fill="none" fill-rule="evenodd">
        <g id="logo" transform="translate(-0.000000, 0.784000)" fill="#292F33">
            <path d="M0.994142632,29.0303 C0.637856403,29.0324224 0.309604294,29.2239332 0.1324256,29.5330482 C-0.0447530943,29.8421632 -0.0440990286,30.2221967 0.134142632,30.5307 C0.134142632,30.5307 3.64094233,36.5936 11.1016423,41.2782 C18.5621423,45.9626 30.0707423,49.2801 45.8138393,44.0228 C45.8138393,44.0226 45.8148393,44.0224 45.8158393,44.0222 C58.2065393,39.9104 66.6096393,38.8065 72.5458393,38.9285 C78.4822393,39.0505 81.9354393,40.3728 84.6889393,41.2754 C85.1379191,41.4226029 85.6286628,41.2355021 85.8656816,40.8267558 C86.1027004,40.4180094 86.0213191,39.8991518 85.6705393,39.5826 C79.1073393,33.6602 72.6654393,31.2339 66.2430393,30.7019 C59.8205393,30.17 53.4470393,31.484 46.8276393,32.876 C33.5889423,35.6599 19.4248423,38.8311 1.47484263,29.1501 C1.32730197,29.0705843 1.16214345,29.0294237 0.994542632,29.0304 L0.994142632,29.0303 Z" id="Path"></path>
            <path d="M35.9616423,2.45378 C35.4079423,2.46378 34.8227423,2.53888 34.2094423,2.69346 C34.209109,2.69345983 34.2087757,2.69345983 34.2084423,2.69346 C31.9462423,3.26577 27.8922423,4.88161 23.5075423,6.78909 C19.1227423,8.69656 14.4701423,10.88431 11.2325423,12.57128 C11.2322089,12.5714798 11.2318755,12.5716798 11.2315423,12.57188 C9.83834233,13.29915 8.88244233,14.22852 8.37284233,15.26188 C7.86324233,16.29523 7.83144233,17.43658 8.25124233,18.38375 C9.09084233,20.27809 11.5617423,21.19277 14.2806423,20.25031 C22.7949423,17.29889 27.6630423,15.4701 32.5803423,13.88063 C32.5813423,13.88043 32.5815423,13.88023 32.5822423,13.88003 C34.0059423,13.42299 34.4323423,13.55557 34.4134423,13.54409 C34.4040423,13.53809 34.4299423,13.54409 34.5165423,13.71284 C34.6010423,13.8773 34.7147423,14.16522 34.8915423,14.51096 C35.4294423,15.63106 35.7080423,16.20629 35.9034423,16.60065 C30.4016423,20.82492 25.9211423,23.9861 19.7640423,28.4403 C19.4477241,28.6692185 19.2935579,29.0612956 19.3692451,29.4443522 C19.4449324,29.8274088 19.7366309,30.1313886 20.1162423,30.2228 C20.1162423,30.2228 27.8647423,32.1005 36.6987423,30.2388 C45.3092393,28.4246 46.7339393,27.7883 54.1703393,26.8438 C54.1826383,26.8440269 54.1949404,26.8440269 54.2072393,26.8438 C54.4599393,26.8018 54.8201393,26.7468 55.2175393,26.5826 C55.6148393,26.4179 56.1043393,26.0935 56.3468393,25.5217 C56.5894393,24.9498 56.5193393,24.2913 56.2597393,23.6448 C56.0000393,22.9983 55.5495393,22.2957 54.8384393,21.42602 C54.8381062,21.4256864 54.8377729,21.4253531 54.8374393,21.42502 C53.4894393,19.78152 50.5147393,16.18252 47.7380393,12.81252 C44.9613393,9.44252 42.3409393,6.2463 41.8549393,5.61002 C41.8532805,5.6080135 41.8516138,5.60601348 41.8499393,5.60402 C41.2543423,4.8368 40.3833423,3.86162 39.1155423,3.19245 C38.2439423,2.7324 37.1789423,2.43753 35.9608423,2.45902 L35.9616423,2.45378 Z" id="Path"></path>
            <path d="M66.1491393,2.81315 C60.7611393,2.81315 56.3632393,7.2007 56.3632393,12.59878 C56.3632393,17.98797 60.7598393,22.3844 66.1491393,22.3844 C71.5473393,22.3844 75.9348393,17.9866 75.9348393,12.59878 C75.9348393,7.20207 71.5459393,2.81315 66.1491393,2.81315 Z" id="Path"></path>
            <path d="M104.400307,39.256 C104.437641,38.4346626 104.670972,37.5293383 105.100307,36.54 C105.529643,35.5506617 106.024305,34.7760028 106.584307,34.216 C109.533655,35.8213414 112.128296,36.624 114.368307,36.624 C115.600313,36.624 116.59897,36.3813358 117.364307,35.896 C118.129644,35.4106642 118.512307,34.7573374 118.512307,33.936 C118.512307,32.6293268 117.504317,31.5840039 115.488307,30.8 L112.352307,29.624 C107.648284,27.9066581 105.296307,25.1626855 105.296307,21.392 C105.296307,20.0479933 105.548305,18.8440053 106.052307,17.78 C106.55631,16.7159947 107.265636,15.8013372 108.180307,15.036 C109.094979,14.2706628 110.186968,13.6826687 111.456307,13.272 C112.725647,12.8613313 114.144299,12.656 115.712307,12.656 C116.421644,12.656 117.21497,12.7119994 118.092307,12.824 C118.969645,12.9360006 119.856303,13.0946656 120.752307,13.3 C121.648312,13.5053344 122.50697,13.7386654 123.328307,14 C124.149645,14.2613346 124.858971,14.5413318 125.456307,14.84 C125.456307,15.773338 125.269643,16.743995 124.896307,17.752 C124.522972,18.760005 124.018977,19.5066642 123.384307,19.992 C120.434959,18.6853268 117.877651,18.032 115.712307,18.032 C114.741636,18.032 113.97631,18.265331 113.416307,18.732 C112.856305,19.198669 112.576307,19.8053296 112.576307,20.552 C112.576307,21.7093391 113.509631,22.6239966 115.376307,23.296 L118.792307,24.528 C121.25632,25.386671 123.085635,26.5626592 124.280307,28.056 C125.47498,29.5493408 126.072307,31.2853234 126.072307,33.264 C126.072307,35.9146799 125.082984,38.0333254 123.104307,39.62 C121.125631,41.2066746 118.288326,42 114.592307,42 C110.970956,42 107.573657,41.0853425 104.400307,39.256 Z M133.968307,37.856 L128.368307,13.832 C129.824315,13.2346637 131.140301,12.936 132.316307,12.936 C133.492313,12.936 134.350971,13.1879975 134.892307,13.692 C135.433643,14.1960025 135.79764,14.9706614 135.984307,16.016 L138.112307,26.32 C138.858978,29.978685 139.400306,32.9839882 139.736307,35.336 C139.810974,35.6346682 139.960306,35.784 140.184307,35.784 L144.048307,13.608 C145.205646,13.3839989 146.661632,13.272 148.416307,13.272 C150.170983,13.272 151.589635,13.3839989 152.672307,13.608 L156.536307,35.336 C156.573641,35.6346682 156.722973,35.784 156.984307,35.784 C157.656311,31.9013139 158.234972,28.7466788 158.720307,26.32 L161.520307,13.44 C162.304311,13.2159989 163.414967,13.104 164.852307,13.104 C166.289648,13.104 167.41897,13.3093313 168.240307,13.72 L168.464307,14.168 L161.744307,41.216 C160.512301,41.4026676 158.916317,41.496 156.956307,41.496 C154.996298,41.496 153.661644,41.2720022 152.952307,40.824 C152.24297,40.3759978 151.776308,39.4240073 151.552307,37.968 L150.320307,31.08 C149.573637,26.7866452 148.97631,23.0906822 148.528307,19.992 L148.192307,19.992 C147.930973,21.933343 147.314979,25.6106396 146.344307,31.024 L144.440307,41.216 C143.133634,41.4026676 141.50965,41.496 139.568307,41.496 C137.626964,41.496 136.292311,41.2533358 135.564307,40.768 C134.836304,40.2826642 134.304309,39.3120073 133.968307,37.856 Z M181.288307,19.096 L181.288307,41.216 C180.728305,41.3280006 180.14031,41.4026665 179.524307,41.44 C178.908304,41.4773335 178.282977,41.496 177.648307,41.496 C177.013637,41.496 176.38831,41.4773335 175.772307,41.44 C175.156304,41.4026665 174.549644,41.3280006 173.952307,41.216 L173.952307,21.728 C173.952307,19.6746564 173.112316,18.648 171.432307,18.648 L170.704307,18.648 C170.480306,17.8266626 170.368307,16.9680045 170.368307,16.072 C170.368307,15.2506626 170.480306,14.3920045 170.704307,13.496 C171.562978,13.421333 172.356304,13.3560003 173.084307,13.3 C173.812311,13.2439997 174.437638,13.216 174.960307,13.216 L175.912307,13.216 C177.592316,13.216 178.908303,13.7386614 179.860307,14.784 C180.812312,15.8293386 181.288307,17.2666575 181.288307,19.096 Z M172.832307,2.632 C173.690978,2.14666424 174.922966,1.904 176.528307,1.904 C177.461645,1.904 178.217638,1.97866592 178.796307,2.128 C179.374977,2.27733408 179.794973,2.45466564 180.056307,2.66 C180.317642,2.86533436 180.48564,3.2479972 180.560307,3.808 C180.634974,4.3680028 180.672307,4.94666368 180.672307,5.544 C180.560307,7.44800952 180.326976,8.4933324 179.972307,8.68 C179.617639,8.8666676 178.450984,9.0533324 176.472307,9.24 C174.38163,9.16533296 173.158976,8.88533576 172.804307,8.4 C172.449639,7.91466424 172.272307,6.96267376 172.272307,5.544 C172.272307,4.46132792 172.458972,3.49067096 172.832307,2.632 Z M203.968307,24.024 C203.968307,20.9999849 202.99765,19.488 201.056307,19.488 C199.450966,19.562667 197.826982,20.4399916 196.184307,22.12 L196.184307,41.216 C195.064302,41.4026676 193.850981,41.496 192.544307,41.496 C191.237634,41.496 190.024313,41.4026676 188.904307,41.216 L188.904307,13.496 L189.240307,13.104 L191.984307,13.104 C194.186985,13.104 195.530972,14.2613218 196.016307,16.576 C198.629654,14.1493212 201.224294,12.936 203.800307,12.936 C206.861656,12.936 209.026968,14.2799866 210.296307,16.968 C213.170988,14.2799866 216.082959,12.936 219.032307,12.936 C221.421653,12.936 223.241634,13.7479919 224.492307,15.372 C225.74298,16.9960081 226.368307,19.1146536 226.368307,21.728 L226.368307,34.72 C226.368307,37.1093453 226.760303,38.8826609 227.544307,40.04 C226.237634,41.0853386 224.790982,41.608 223.204307,41.608 C221.617633,41.608 220.525644,41.2346704 219.928307,40.488 C219.330971,39.7413296 219.032307,38.6026743 219.032307,37.072 L219.032307,23.968 C219.032307,20.9813184 218.042984,19.488 216.064307,19.488 C214.570967,19.488 212.965649,20.383991 211.248307,22.176 L211.248307,41.216 C210.128302,41.4026676 208.914981,41.496 207.608307,41.496 C206.301634,41.496 205.088313,41.4026676 203.968307,41.216 L203.968307,24.024 Z M246.808307,41.72 C244.866964,41.72 242.944317,41.216005 241.040307,40.208 L241.040307,48.776 C241.040307,50.4560084 240.741644,51.6319966 240.144307,52.304 C239.546971,52.9760034 238.520315,53.312 237.064307,53.312 L234.208307,53.312 L233.872307,52.92 L233.872307,13.496 L234.208307,13.104 L236.280307,13.104 C238.258984,13.104 239.640303,14.0186575 240.424307,15.848 C242.552318,13.7199894 245.128292,12.656 248.152307,12.656 C251.213656,12.656 253.584299,13.9533204 255.264307,16.548 C256.944316,19.1426796 257.784307,22.6986441 257.784307,27.216 C257.784307,29.4560112 257.494977,31.471991 256.916307,33.264 C256.337638,35.056009 255.553646,36.5773271 254.564307,37.828 C253.574969,39.0786729 252.417647,40.0399966 251.092307,40.712 C249.766967,41.3840034 248.338982,41.72 246.808307,41.72 Z M246.136307,18.592 C244.120297,18.592 242.421648,19.562657 241.040307,21.504 L241.040307,34.496 C242.682982,35.5786721 244.176301,36.12 245.520307,36.12 C247.088315,36.12 248.28297,35.3266746 249.104307,33.74 C249.925645,32.1533254 250.336307,29.922681 250.336307,27.048 C250.336307,24.1359854 249.944311,21.9986735 249.160307,20.636 C248.376303,19.2733265 247.368313,18.592 246.136307,18.592 Z M273.184307,35.84 L274.920307,35.84 C275.330976,36.8853386 275.536307,37.8933285 275.536307,38.864 C275.536307,39.8346715 275.480308,40.5439978 275.368307,40.992 C273.090963,41.3280017 271.280314,41.496 269.936307,41.496 C267.770963,41.496 266.184312,40.9453388 265.176307,39.844 C264.168302,38.7426612 263.664307,37.0160118 263.664307,34.664 L263.664307,0.392 L264.056307,0 L266.856307,0 C268.312315,1.42108547e-14 269.338971,0.34532988 269.936307,1.036 C270.533644,1.72667012 270.832307,2.89332512 270.832307,4.536 L270.832307,33.264 C270.832307,34.9813419 271.616299,35.84 273.184307,35.84 Z M301.912307,29.68 L286.456307,29.68 C286.568308,31.7333436 287.044303,33.3479941 287.884307,34.524 C288.724312,35.7000059 290.18963,36.288 292.280307,36.288 C294.445651,36.288 296.928293,35.6533397 299.728307,34.384 C300.810979,35.5040056 301.501639,36.9786575 301.800307,38.808 C298.813626,40.9360106 295.229662,42 291.048307,42 C287.090954,42 284.094984,40.7773456 282.060307,38.332 C280.02563,35.8866544 279.008307,32.2560241 279.008307,27.44 C279.008307,25.1999888 279.269638,23.1746757 279.792307,21.364 C280.314977,19.5533243 281.080302,18.0040064 282.088307,16.716 C283.096312,15.4279936 284.3283,14.4293369 285.784307,13.72 C287.240315,13.0106631 288.901631,12.656 290.768307,12.656 C292.672317,12.656 294.3523,12.9453304 295.808307,13.524 C297.264315,14.1026696 298.496302,14.9239947 299.504307,15.988 C300.512312,17.0520053 301.268305,18.3119927 301.772307,19.768 C302.27631,21.2240073 302.528307,22.8106581 302.528307,24.528 C302.528307,25.461338 302.472308,26.3479958 302.360307,27.188 C302.248307,28.0280042 302.098975,28.8586626 301.912307,29.68 Z M291.104307,17.92 C288.192293,17.92 286.624308,20.1226446 286.400307,24.528 L295.696307,24.528 L295.696307,23.856 C295.696307,22.063991 295.322978,20.6266721 294.576307,19.544 C293.829637,18.4613279 292.672315,17.92 291.104307,17.92 Z" id="swimple" fill-rule="nonzero"></path>
        </g>
    </g>
</svg>